<svg xmlns="http://www.w3.org/2000/svg" viewBox="0 0 320 320" width="320" height="320">
  <rect width="320" height="320" rx="64" fill="#ffffff"/>
  <g transform="translate(40 40) scale(0.75)">
    <path fill="#000000" d="M297.06 130.97c7.26-21.79 4.76-45.66-6.85-65.48-17.46-30.4-52.56-46.04-86.84-38.68C187.99 9.4 165.96 0 142.85 0 107.55 0 76.25 22.76 65.45 56.17c-22.51 4.61-41.94 18.7-53.34 38.67-17.59 30.32-13.58 68.54 9.92 94.54-7.26 21.79-4.76 45.66 6.85 65.48 17.46 30.4 52.56 46.04 86.84 38.68 15.25 17.41 37.28 26.81 60.39 26.81 35.32 0 66.62-22.78 77.42-56.22 22.51-4.61 41.94-18.7 53.34-38.67 17.59-30.32 13.58-68.54-9.92-94.54zM176.65 299.18c-14.13 0-27.81-4.95-38.67-13.96.49-.27 1.35-.74 1.91-1.08l64.21-37.08c3.28-1.89 5.31-5.39 5.3-9.18v-90.51l27.14 15.67c.29.14.49.43.53.74v74.95c-.03 33.45-27.12 60.59-60.57 60.62zM46.85 243.74c-7.07-12.21-9.62-26.51-7.18-40.39.47.28 1.31.79 1.9 1.13l64.21 37.08c3.27 1.91 7.31 1.91 10.59 0l78.38-45.26v31.34c.02.32-.13.62-.38.81l-64.91 37.48c-29 16.71-66.05 6.77-82.79-22.19zM29.96 103.5c7.04-12.23 18.17-21.59 31.45-26.45 0 .55-.03 1.52-.03 2.2v74.16c-.02 3.78 2.01 7.29 5.29 9.18l78.38 45.25-27.14 15.67c-.27.18-.61.21-.91.08l-64.92-37.51c-28.94-16.74-38.88-53.78-22.18-82.78zM252.31 155.3l-78.38-45.26 27.14-15.66c.27-.18.61-.21.91-.08l64.92 37.48c29 16.74 38.94 53.84 22.2 82.84-7.05 12.22-18.17 21.58-31.45 26.45v-76.36c.03-3.78-1.99-7.28-5.34-9.21zM279.32 114.62c-.47-.29-1.31-.79-1.9-1.13l-64.21-37.08c-3.27-1.91-7.32-1.91-10.59 0l-78.38 45.26V90.33c-.02-.32.13-.62.38-.81l64.91-37.45c29-16.74 66.09-6.77 82.81 22.2 7.04 12.2 9.59 26.48 7.16 40.34zM117.46 170.49l-27.15-15.67c-.29-.14-.49-.43-.53-.74V79.13c.02-33.5 27.18-60.63 60.68-60.61 14.11 0 27.78 4.95 38.64 13.95-.49.27-1.34.74-1.91 1.08l-64.21 37.08c-3.28 1.89-5.31 5.38-5.3 9.17l-.22 90.69zm14.75-31.78l34.91-20.16 34.91 20.15v40.31l-34.91 20.15-34.91-20.15v-40.3z"/>
  </g>
</svg>
